<?xml version="1.0" encoding="UTF-8"?>
<!DOCTYPE svg PUBLIC "-//W3C//DTD SVG 1.1//EN" "http://www.w3.org/Graphics/SVG/1.1/DTD/svg11.dtd">
<svg version="1.1" xmlns="http://www.w3.org/2000/svg" xmlns:xlink="http://www.w3.org/1999/xlink" x="0" y="0" width="2000" height="814.426" viewBox="0, 0, 2000, 814.426">
  <g id="Layer_1">
    <path d="M427.13,294.426 L427.13,75 C427.13,33.579 393.463,-0 351.932,-0 C326.008,-0 303.148,13.084 289.628,32.991 C289.432,33.246 289.237,33.502 289.044,33.759 C287.163,36.267 285.463,38.854 283.942,41.504 L15.448,399.461 C10.716,405.628 6.922,412.549 4.278,420.012 C4.124,420.449 3.973,420.886 3.827,421.325 C0.885,430.148 -0.343,439.352 0.082,448.455 C1.021,468.558 10.023,488.167 26.43,502.088 C33.534,508.131 41.78,512.879 50.801,515.963 C58.951,518.752 67.437,520.082 75.879,520 L240.646,520 L240.646,739.426 C240.646,780.847 274.314,814.426 315.844,814.426 C341.768,814.426 364.628,801.342 378.149,781.435 C378.345,781.18 378.539,780.924 378.732,780.667 C380.613,778.159 382.313,775.572 383.834,772.922 L652.33,414.964 C657.233,408.574 661.129,401.374 663.781,393.601 C666.844,384.629 668.127,375.253 667.695,365.982 C666.722,344.513 656.699,325.395 641.341,312.333 C634.27,306.32 626.069,301.59 617.099,298.505 C608.91,295.687 600.38,294.344 591.895,294.426 L427.13,294.426 z" fill="#FFFFFF" id="bolt"/>
    <path d="M1813.286,681.781 C1800.13,681.781 1787.986,680.645 1776.854,678.374 C1765.721,676.103 1755.601,673.202 1746.493,669.669 L1746.493,805.172 C1741.433,806.686 1734.349,808.2 1725.241,809.714 C1716.133,811.228 1706.013,811.985 1694.881,811.985 C1672.111,811.985 1655.666,808.2 1645.546,800.63 C1635.426,793.06 1630.366,778.677 1630.366,757.481 L1630.366,382.766 C1630.366,369.644 1633.149,358.92 1638.715,350.593 C1644.281,342.266 1652.124,334.823 1662.244,328.262 C1677.424,318.673 1696.905,310.725 1720.687,304.416 C1744.469,298.108 1770.781,294.954 1799.624,294.954 C1828.972,294.954 1855.916,298.613 1880.457,305.93 C1904.998,313.248 1926.124,324.729 1943.834,340.374 C1961.544,356.019 1975.332,375.953 1985.2,400.177 C1995.067,424.401 2000,453.167 2000,486.475 C2000,518.269 1995.32,546.404 1985.959,570.88 C1976.598,595.357 1963.568,615.796 1946.87,632.197 C1930.172,648.599 1910.438,660.963 1887.668,669.29 C1864.898,677.617 1840.104,681.781 1813.286,681.781 z M1795.829,590.184 C1823.153,590.184 1844.278,581.605 1859.205,564.446 C1874.132,547.287 1881.596,521.297 1881.596,486.475 C1881.596,450.643 1874.385,424.906 1859.964,409.261 C1845.543,393.616 1825.43,385.794 1799.624,385.794 C1787.985,385.794 1777.866,387.182 1769.263,389.957 C1760.661,392.733 1752.818,395.887 1745.734,399.42 L1745.734,577.315 C1752.818,581.352 1760.409,584.506 1768.505,586.777 C1776.601,589.048 1785.708,590.184 1795.829,590.184 z M1541.563,669.669 C1536.503,671.183 1529.419,672.571 1520.311,673.832 C1511.203,675.094 1501.083,675.725 1489.951,675.725 C1467.18,675.725 1450.862,672.066 1440.995,664.748 C1431.128,657.431 1426.194,643.174 1426.194,621.978 L1426.194,310.851 C1431.255,309.337 1438.338,307.823 1447.446,306.309 C1456.555,304.795 1466.674,304.038 1477.807,304.038 C1500.577,304.038 1516.895,307.823 1526.762,315.393 C1536.629,322.963 1541.563,337.346 1541.563,358.542 z M1419.363,201.843 C1419.363,184.684 1425.309,170.049 1437.2,157.937 C1449.091,145.825 1464.651,139.769 1483.879,139.769 C1503.107,139.769 1518.666,145.825 1530.557,157.937 C1542.448,170.049 1548.394,184.684 1548.394,201.843 C1548.394,219.506 1542.448,234.394 1530.557,246.506 C1518.666,258.618 1503.107,264.674 1483.879,264.674 C1464.651,264.674 1449.091,258.618 1437.2,246.506 C1425.309,234.394 1419.363,219.506 1419.363,201.843 z M1280.466,675.725 C1257.696,675.725 1241.377,672.066 1231.51,664.748 C1221.643,657.431 1216.71,643.174 1216.71,621.978 L1216.71,177.619 C1221.77,176.105 1228.98,174.591 1238.341,173.077 C1247.703,171.563 1257.949,170.806 1269.081,170.806 C1291.345,170.806 1307.537,174.591 1317.657,182.161 C1327.777,189.731 1332.837,204.114 1332.837,225.31 L1332.837,669.669 C1327.271,671.183 1319.934,672.571 1310.826,673.832 C1301.718,675.094 1291.598,675.725 1280.466,675.725 z M1124.112,330.533 C1124.112,353.243 1117.913,372.799 1105.516,389.2 C1093.119,405.602 1075.282,418.345 1052.006,427.429 C1081.354,437.018 1103.365,451.148 1118.04,469.821 C1132.714,488.494 1140.051,510.951 1140.051,537.194 C1140.051,586.147 1121.961,622.482 1085.782,646.202 C1049.603,669.921 997.358,681.781 929.048,681.781 C919.94,681.781 909.693,681.528 898.308,681.024 C886.923,680.519 875.285,679.636 863.394,678.374 C851.503,677.113 839.612,675.346 827.721,673.075 C815.83,670.804 805.078,667.903 795.464,664.37 C769.151,654.781 755.995,637.623 755.995,612.894 L755.995,252.562 C755.995,242.468 758.652,234.646 763.965,229.095 C769.278,223.543 776.994,219.254 787.115,216.226 C803.813,210.674 824.558,206.511 849.353,203.735 C874.147,200.96 899.7,199.572 926.012,199.572 C989.262,199.572 1038.091,210.296 1072.499,231.744 C1106.908,253.193 1124.112,286.122 1124.112,330.533 z M1018.61,531.895 C1018.61,496.063 995.587,478.148 949.541,478.148 L871.364,478.148 L871.364,584.128 C879.46,586.146 889.58,587.66 901.724,588.67 C913.868,589.679 925.506,590.184 936.638,590.184 C960.926,590.184 980.66,585.516 995.84,576.179 C1011.02,566.843 1018.61,552.082 1018.61,531.895 z M871.364,394.121 L941.951,394.121 C961.685,394.121 977.118,389.579 988.25,380.495 C999.382,371.411 1004.948,358.037 1004.948,340.374 C1004.948,324.224 998.497,311.734 985.594,302.902 C972.69,294.071 953.336,289.655 927.53,289.655 C917.916,289.655 907.796,290.033 897.17,290.79 C886.544,291.547 877.942,292.43 871.364,293.44 z" fill="#FFFFFF" id="Blip"/>
  </g>
</svg>
